<?xml version="1.0" encoding="UTF-8" standalone="no"?>
<svg
   xmlns:dc="http://purl.org/dc/elements/1.1/"
   xmlns:cc="http://creativecommons.org/ns#"
   xmlns:rdf="http://www.w3.org/1999/02/22-rdf-syntax-ns#"
   xmlns:svg="http://www.w3.org/2000/svg"
   xmlns="http://www.w3.org/2000/svg"
   id="svg8"
   version="1.1"
   viewBox="0 0 23.433969 23.429675"
   height="88.553101"
   width="88.569336">
  <defs
     id="defs2">
    <linearGradient
       x1="0"
       y1="0"
       x2="1"
       y2="0"
       gradientUnits="userSpaceOnUse"
       gradientTransform="matrix(-488.88223,-491.21259,-491.21259,488.88223,478.44104,597.64911)"
       spreadMethod="pad"
       id="linearGradient36">
      <stop
         style="stop-opacity:1;stop-color:#fef400"
         offset="0"
         id="stop32" />
      <stop
         style="stop-opacity:1;stop-color:#fec600"
         offset="1"
         id="stop34" />
    </linearGradient>
    <linearGradient
       x1="0"
       y1="0"
       x2="1"
       y2="0"
       gradientUnits="userSpaceOnUse"
       gradientTransform="matrix(-246.82899,-140.86996,140.86996,-246.82899,270.65723,419.84)"
       spreadMethod="pad"
       id="linearGradient56">
      <stop
         style="stop-opacity:1;stop-color:#fef400"
         offset="0"
         id="stop52" />
      <stop
         style="stop-opacity:1;stop-color:#fec600"
         offset="1"
         id="stop54" />
    </linearGradient>
    <linearGradient
       x1="0"
       y1="0"
       x2="1"
       y2="0"
       gradientUnits="userSpaceOnUse"
       gradientTransform="matrix(-246.44995,-140.61012,140.61012,-246.44995,446.85666,421.02005)"
       spreadMethod="pad"
       id="linearGradient76">
      <stop
         style="stop-opacity:1;stop-color:#00a3ff"
         offset="0"
         id="stop72" />
      <stop
         style="stop-opacity:1;stop-color:#0057ff"
         offset="1"
         id="stop74" />
    </linearGradient>
    <linearGradient
       x1="0"
       y1="0"
       x2="1"
       y2="0"
       gradientUnits="userSpaceOnUse"
       gradientTransform="matrix(432.4183,-270.20496,-270.20496,-432.4183,19.538866,596.57391)"
       spreadMethod="pad"
       id="linearGradient96">
      <stop
         style="stop-opacity:1;stop-color:#00a3ff"
         offset="0"
         id="stop92" />
      <stop
         style="stop-opacity:1;stop-color:#0057ff"
         offset="1"
         id="stop94" />
    </linearGradient>
    <clipPath
       clipPathUnits="userSpaceOnUse"
       id="clipPath106">
      <path
         d="M 0,586.043 H 468 V 0 H 0 Z"
         id="path104" />
    </clipPath>
  </defs>
  <g
     transform="translate(-3.5969061,-3.3405553)"
     id="layer1">
    <g
       id="g18"
       transform="matrix(0.35277777,0,0,-0.35277777,16.479769,229.52623)">
      <g
         transform="matrix(0.13939569,0,0,0.13939569,-35.927595,558.86537)"
         id="g20">
         <path
            id="path38"
            d="m 438.23242,113.90039 c -137.50209,0.40207 -275.0339,-0.0992 -412.539061,0.26172 -17.8631582,1.43238 -31.9539215,19.32502 -29.6924453,37.01758 0.2221614,136.9437 -0.4574789,273.91562 0.3506488,410.84179 2.2762483,17.6026 20.4371515,30.46413 37.7949215,28.02057 136.607116,-0.22219 273.242446,0.45751 409.832036,-0.35064 17.60325,-2.27559 30.46309,-20.43742 28.02056,-37.79493 -0.22219,-136.60711 0.45751,-273.24244 -0.35064,-409.83203 -2.12085,-15.96521 -17.431,-28.54321 -33.41602,-28.16406 z M 31.345703,135.69727 c 46.874756,0.81175 93.848887,0.11147 140.761717,0.3457 89.64578,0.0939 179.31282,-0.18765 268.94531,0.14062 8.63517,1.68308 10.25014,11.71722 8.946,18.9668 -0.15457,134.76047 0.32142,269.54141 -0.24873,404.28906 -1.94173,8.94069 -12.47085,9.57851 -19.85742,8.60225 -134.42713,-0.15457 -268.87474,0.32141 -403.289064,-0.24873 -8.940684,-1.94173 -9.57851,-12.47085 -8.602245,-19.85742 C 18.155838,413.50842 17.679855,279.06081 18.25,144.64648 c 1.07155,-5.99219 7.544821,-8.96622 13.095703,-8.94921 z"
            style="fill:url(#linearGradient36);stroke:none" />
      </g>
      <g transform="matrix(0.15738595,0,0,0.15738595,-40.137852,552.53071)" id="g40">
         <path
            d="m 185.3,486.113 -54.47,-108.19 c -1.17,-2.34 -1.86,-5.05 -1.86,-7.84 v 0 l 0.29,-81.42 -50.057,-26.37 c -13.886,-7.31 -19.231,-24.53 -11.945,-38.46 v 0 c 7.297,-13.931 24.452,-19.29 38.337,-11.98 v 0 l 92.525,48.75 2.12,1.11 c 6.2,3.32 10.86,9.38 12.14,16.87 v 0 l 15.33,89.85 c 1.65,9.67 -3.79,19.43 -13.31,22.86 v 0 c -10.67,3.85 -22.44,-1.72 -26.26,-12.43 v 0 l -12.29,-34.37 -1.23,21.18 38.85,108.27 c 2.6,7.22 -0.52,15.43 -7.53,18.98 v 0 c -2.223,1.126 -4.588,1.66 -6.917,1.66 v 0 c -5.613,0 -11.016,-3.099 -13.723,-8.47"
            style="fill:url(#linearGradient56);stroke:none"
            id="path58" />
      </g>
      <g transform="matrix(0.15738595,0,0,0.15738595,-40.137852,552.53071)" id="g60">
         <path
            d="m 263.3,492.723 c -7,-3.54 -10.12,-11.73 -7.52,-18.95 v 0 l 38.78,-108.12 -1.23,-21.15 -12.26,34.32 c -3.82,10.69 -15.57,16.25 -26.22,12.42 v 0 c -9.51,-3.43 -14.94,-13.18 -13.29,-22.83 v 0 l 15.3,-89.73 c 1.28,-7.48 5.94,-13.53 12.13,-16.84 v 0 l 2.11,-1.11 92.37,-48.68 c 13.859,-7.31 30.99,-1.95 38.28,11.96 v 0 c 7.27,13.9 1.93,31.1 -11.93,38.41 v 0 l -49.98,26.33 0.29,81.3 c 0,2.79 -0.68,5.5 -1.85,7.83 v 0 l -54.38,108.04 c -2.699,5.363 -8.096,8.46 -13.696,8.46 v 0 c -2.326,0 -4.686,-0.533 -6.904,-1.66"
            style="fill:url(#linearGradient76);stroke:none"
            id="path78" />
      </g>
      <g transform="matrix(0.13939569,0,0,0.13939569,-35.927595,558.86537)" id="g80">
         <path
            id="path98"
            d="M 15.798828,348.05273 C 9.26919,348.83751 1.9961208,346.18854 -4,349.83789 c 0.231223,70.72414 -0.4630402,141.47729 0.3515625,212.18359 2.2762483,17.6026 20.4371515,30.46413 37.7949215,28.02057 136.607116,-0.22219 273.242446,0.45751 409.832036,-0.35064 17.60383,-2.27559 30.46191,-20.43742 28.02148,-37.79493 0,-68.02213 0,-136.04427 0,-204.0664 -7.23937,1.44027 -15.29222,-1.94918 -21.99805,2.00586 -0.2508,70.03481 0.49561,140.10345 -0.38086,210.11718 -2.45496,9.06368 -13.27595,8.82411 -20.72851,8.08815 C 294.79878,567.8882 160.6845,568.36242 26.603516,567.79297 17.662081,565.85124 17.026585,555.32212 18,547.93555 c 0,-66.70183 0,-133.40365 0,-200.10547 -0.733724,0.0742 -1.467448,0.14844 -2.201172,0.22265 z"
            style="fill:url(#linearGradient96);stroke:none" />
      </g>
    </g>
  </g>
</svg>
